# xmcd
#
# Track frame offsets:
#	150
#	12875
#	38012
#	61080
#	99095
#	126635
#	142450
#	156837
#	181792
#	206557
#	237455
#	258835
#	285720
#
# Disc length: 4119 seconds
#
# Revision: 1
# Processed by: cddbd v1.5.1PL0 Copyright (c) Steve Scherf et al.
# Submitted via: audiograbber 1.83.01
#
DISCID=b610150d
DTITLE=Ismael Miranda - The Best
DYEAR=2001
DGENRE=Salsa
TTITLE0=Como Mi Pueblo
TTITLE1=Asi Se Compone Un Son
TTITLE2=Las Esquinas Son
TTITLE3=Mi Mami Me Quiere
TTITLE4=Medley: With Orchestra Harlow
TTITLE5=La Cosa No Es Como Antes
TTITLE6=Todo De Mi
TTITLE7=Señor Sereno
TTITLE8=Cipriano Armenteros
TTITLE9=No Me Digan Que Es Muy Tarde  
TTITLE10=Maria Luisa
TTITLE11=Borinquen Tiene Montuno
TTITLE12=Rumba, Rumba, Rumba
EXTD=
EXTT0=
EXTT1=
EXTT2=
EXTT3=
EXTT4=
EXTT5=
EXTT6=
EXTT7=
EXTT8=
EXTT9=
EXTT10=
EXTT11=
EXTT12=
PLAYORDER=
